<svg
	viewBox="0 0 640 857"
	fill="none"
	xmlns="http://www.w3.org/2000/svg">
	<path
		d="M603.765 517.383L297.315 714.443L297.105 794.443C298.265 794.103 299.885 793.603 301.785 792.893C309.155 790.143 314.105 786.803 314.925 786.273C408.535 725.393 502.155 664.513 595.765 603.643C600.905 600.303 604.005 594.573 603.985 588.443C603.915 564.753 603.835 541.073 603.765 517.383Z"
		fill="#C68D32" />
	<path
		d="M297.515 714.743L279.655 726.233L0.0153198 540.043V613.003C0.0153198 621.123 4.08534 628.713 10.8453 633.203C87.6853 684.243 164.515 735.293 241.355 786.333C249.875 791.993 273.195 801.643 297.115 794.863C299.255 794.253 300.935 793.643 301.835 793.303C300.395 767.113 298.955 740.933 297.515 714.743Z"
		fill="#E4A934" />
	<path
		d="M622.155 136.253L363.875 3.67267C342.005 -7.55733 316.005 8.32267 316.005 32.9027V320.743C316.005 332.663 322.465 343.653 332.875 349.453L591.145 493.323C613.045 505.523 639.995 489.683 639.995 464.613V165.493C639.995 153.173 633.105 141.883 622.145 136.263L622.155 136.253ZM519.005 157.513C519.005 159.703 516.645 161.073 514.745 159.993L435.445 114.903C434.555 114.393 434.005 113.453 434.005 112.423V105.333C434.005 103.143 436.365 101.773 438.265 102.853L517.565 148.073C518.455 148.583 519.005 149.523 519.005 150.553V157.523V157.513Z"
		fill="#E4A934" />
	<path
		d="M12.6553 564.842C97.3253 617.542 182.005 670.232 266.675 722.932C275.365 728.342 286.365 728.332 295.055 722.932L591.115 538.492C608.475 527.672 607.845 502.182 589.955 492.252L331.325 348.582C323.045 343.982 312.945 344.082 304.765 348.862L13.3153 518.892C-4.1447 529.082 -4.50467 554.182 12.6553 564.862V564.842Z"
		fill="#FCB73D" />
	<path
		d="M80.5152 488.602L307.195 356.862C314.645 352.532 323.825 352.452 331.345 356.662L578.625 494.972C595.055 504.162 595.315 527.712 579.095 537.262L349.485 672.472C341.895 676.942 332.495 676.972 324.875 672.552C243.425 625.292 161.975 578.032 80.5252 530.782C64.3352 521.392 64.3252 498.012 80.5052 488.612L80.5152 488.602Z"
		fill="#030A16" />
	<path
		d="M329.745 406.273C230.475 406.273 149.995 454.823 149.995 514.703C149.995 574.583 230.475 623.133 329.745 623.133C429.015 623.133 509.495 574.583 509.495 514.703C509.495 454.823 429.015 406.273 329.745 406.273ZM329.745 528.783C316.855 528.783 306.415 522.483 306.415 514.713C306.415 506.943 316.865 500.643 329.745 500.643C342.625 500.643 353.075 506.943 353.075 514.713C353.075 522.483 342.625 528.783 329.745 528.783Z"
		fill="#59A1F7" />
	<path
		d="M329.745 409.062C233.025 409.062 154.625 456.363 154.625 514.703C154.625 573.043 233.025 620.342 329.745 620.342C426.465 620.342 504.865 573.043 504.865 514.703C504.865 456.363 426.465 409.062 329.745 409.062ZM329.745 528.772C316.855 528.772 306.415 522.473 306.415 514.703C306.415 506.933 316.865 500.633 329.745 500.633C342.625 500.633 353.075 506.933 353.075 514.703C353.075 522.473 342.625 528.772 329.745 528.772Z"
		fill="#174DB1" />
	<path
		d="M329.745 473.094C291.645 473.094 260.755 491.724 260.755 514.714C260.755 537.704 291.645 556.334 329.745 556.334C367.845 556.334 398.735 537.704 398.735 514.714C398.735 491.724 367.845 473.094 329.745 473.094ZM329.745 528.784C316.855 528.784 306.415 522.484 306.415 514.714C306.415 506.944 316.865 500.644 329.745 500.644C342.625 500.644 353.075 506.944 353.075 514.714C353.075 522.484 342.625 528.784 329.745 528.784Z"
		fill="#06162D" />
	<path
		d="M329.745 488.641C305.885 488.641 286.545 500.311 286.545 514.701C286.545 529.091 305.885 540.761 329.745 540.761C353.605 540.761 372.945 529.091 372.945 514.701C372.945 500.311 353.605 488.641 329.745 488.641ZM329.745 528.781C316.855 528.781 306.415 522.481 306.415 514.711C306.415 506.941 316.865 500.641 329.745 500.641C342.625 500.641 353.075 506.941 353.075 514.711C353.075 522.481 342.625 528.781 329.745 528.781Z"
		fill="#8AB7F9" />
	<path
		d="M44.3553 538.812C42.5653 533.942 37.2654 530.422 31.0054 530.422C24.7454 530.422 19.4354 533.952 17.6554 538.812H17.0054V542.302C17.0054 542.302 17.0054 542.382 17.0054 542.422C17.0054 542.482 17.0054 542.532 17.0054 542.592V542.822C17.0054 542.822 17.0054 542.822 17.0154 542.822C17.0154 543.002 17.0154 543.172 17.0354 543.352C17.5854 549.552 23.6254 554.432 30.9954 554.432C38.7254 554.432 44.9954 549.062 44.9954 542.432V538.822H44.3454L44.3553 538.812Z"
		fill="#7A2414" />
	<path
		d="M31.0054 551.422C38.7374 551.422 45.0054 546.049 45.0054 539.422C45.0054 532.794 38.7374 527.422 31.0054 527.422C23.2734 527.422 17.0054 532.794 17.0054 539.422C17.0054 546.049 23.2734 551.422 31.0054 551.422Z"
		fill="#B13A1A" />
	<path
		d="M190.806 642.844C189.776 640.024 186.706 637.984 183.076 637.984C179.446 637.984 176.376 640.024 175.346 642.844H174.976V644.864C174.976 644.864 174.976 644.904 174.976 644.934C174.976 644.964 174.976 644.994 174.976 645.034V645.164C174.976 645.264 174.976 645.364 174.986 645.474C175.306 649.064 178.796 651.884 183.066 651.884C187.546 651.884 191.166 648.774 191.166 644.934V642.844H190.796H190.806Z"
		fill="#7A2414" />
	<path
		d="M183.076 650.142C187.549 650.142 191.176 647.031 191.176 643.192C191.176 639.354 187.549 636.242 183.076 636.242C178.602 636.242 174.976 639.354 174.976 643.192C174.976 647.031 178.602 650.142 183.076 650.142Z"
		fill="#B13A1A" />
	<path
		d="M221.635 637.165C220.605 634.345 217.535 632.305 213.905 632.305C210.275 632.305 207.205 634.345 206.175 637.165H205.805V639.185C205.805 639.185 205.805 639.225 205.805 639.255C205.805 639.285 205.805 639.315 205.805 639.355V639.485C205.805 639.585 205.805 639.685 205.815 639.795C206.135 643.385 209.625 646.205 213.895 646.205C218.375 646.205 221.995 643.095 221.995 639.255V637.165H221.625H221.635Z"
		fill="#7A2414" />
	<path
		d="M213.905 644.462C218.379 644.462 222.005 641.351 222.005 637.513C222.005 633.674 218.379 630.562 213.905 630.562C209.432 630.562 205.805 633.674 205.805 637.513C205.805 641.351 209.432 644.462 213.905 644.462Z"
		fill="#B13A1A" />
	<path
		d="M165.385 631.094C165.385 631.094 165.385 631.084 165.385 631.074L165.285 629.464L163.705 628.904L147.255 618.804C146.335 618.234 145.145 618.354 144.345 619.084L142.405 620.854C142.255 620.984 142.135 621.134 142.025 621.294L141.505 621.114L141.625 622.954H141.635C141.725 623.654 142.105 624.324 142.775 624.734C148.435 628.204 154.095 631.684 159.765 635.154C160.685 635.724 161.875 635.604 162.675 634.874C163.325 634.284 163.965 633.694 164.615 633.104C165.165 632.604 165.415 631.914 165.395 631.244H165.405L165.395 631.084L165.385 631.094Z"
		fill="#7A2414" />
	<path
		d="M142.296 619.252L144.236 617.482C145.036 616.752 146.226 616.642 147.146 617.202L164.136 627.622C165.516 628.472 165.696 630.402 164.506 631.492C163.856 632.082 163.216 632.672 162.566 633.262C161.766 633.992 160.576 634.102 159.656 633.542C153.996 630.072 148.336 626.592 142.666 623.122C141.286 622.272 141.106 620.342 142.296 619.252Z"
		fill="#B13A1A" />
	<path
		d="M185.845 616.794C185.845 616.794 185.845 616.784 185.845 616.774L185.745 615.164L184.165 614.604L167.715 604.504C166.795 603.934 165.605 604.054 164.805 604.784L162.865 606.554C162.715 606.684 162.595 606.834 162.485 606.994L161.965 606.814L162.085 608.654H162.095C162.185 609.354 162.565 610.024 163.235 610.434C168.895 613.904 174.555 617.384 180.225 620.854C181.145 621.424 182.335 621.304 183.135 620.574C183.785 619.984 184.425 619.394 185.075 618.804C185.625 618.304 185.875 617.614 185.855 616.944H185.865L185.855 616.784L185.845 616.794Z"
		fill="#7A2414" />
	<path
		d="M162.756 604.952L164.696 603.182C165.496 602.452 166.686 602.342 167.606 602.902L184.596 613.322C185.976 614.172 186.156 616.102 184.966 617.192C184.316 617.782 183.676 618.372 183.026 618.962C182.226 619.692 181.036 619.802 180.116 619.242C174.456 615.772 168.796 612.292 163.126 608.822C161.746 607.972 161.566 606.042 162.756 604.952Z"
		fill="#B13A1A" />
	<path
		d="M271.375 664.56V664.46C271.375 664.46 271.355 664.4 271.355 664.38L270.925 661.14L268.185 661.43C265.875 659.81 262.975 658.16 259.465 656.88C255.595 655.48 247.305 652.47 238.465 655.88C236.765 656.54 228.565 659.7 226.125 665.94L224.985 666.06L225.435 670.62H225.505C226.095 676.5 231.565 682.5 239.775 684.71C240.205 684.83 240.675 684.75 241.055 684.51C250.905 678.35 260.765 672.19 270.615 666.03C271.155 665.7 271.405 665.12 271.365 664.55L271.375 664.56Z"
		fill="#7A2414" />
	<path
		d="M259.006 653.419C255.136 652.019 246.846 649.009 238.006 652.419C236.056 653.169 225.566 657.219 225.006 665.419C224.566 671.819 230.306 678.819 239.326 681.249C239.756 681.369 240.226 681.289 240.606 681.049C250.456 674.889 260.316 668.729 270.166 662.569C271.096 661.989 271.196 660.659 270.356 659.959C267.776 657.809 264.006 655.229 259.006 653.419Z"
		fill="#B13A1A" />
	<path
		d="M297.566 686.848V686.568C297.546 686.438 297.536 686.308 297.536 686.178L297.386 683.288L296.956 683.338C295.286 678.328 290.266 673.648 283.226 671.758C282.796 671.638 282.326 671.718 281.946 671.958C273.526 677.218 265.096 682.488 256.676 687.748L251.436 688.318L251.616 691.888H251.626C251.646 692.308 251.826 692.728 252.186 693.038C254.766 695.188 258.536 697.768 263.536 699.578C267.406 700.978 275.696 703.988 284.536 700.578C286.486 699.828 296.976 695.778 297.536 687.578C297.556 687.328 297.536 687.088 297.536 686.838H297.556L297.566 686.848Z"
		fill="#7A2414" />
	<path
		d="M263.356 696.198C267.226 697.598 275.516 700.608 284.356 697.198C286.306 696.448 296.796 692.398 297.356 684.198C297.796 677.798 292.056 670.798 283.036 668.368C282.606 668.248 282.136 668.328 281.756 668.568C271.906 674.728 262.046 680.888 252.196 687.048C251.266 687.628 251.166 688.958 252.006 689.658C254.586 691.808 258.356 694.388 263.356 696.198Z"
		fill="#B13A1A" />
	<path
		d="M437.825 720.749L431.465 717.539L418.465 720.539L421.465 732.539C424.565 734.279 427.655 736.019 430.755 737.749C436.425 733.749 442.085 729.749 447.755 725.749C444.895 724.109 441.876 722.549 438.676 721.119C438.396 720.989 438.115 720.869 437.835 720.749H437.825Z"
		fill="#07162B" />
	<path
		d="M430.115 716.972L423.755 713.762L410.755 716.762L413.755 728.762L421.775 732.802C421.645 732.012 420.775 726.312 424.775 721.802C427.355 718.902 430.555 718.062 431.775 717.802C431.245 717.462 430.685 717.192 430.115 716.962V716.972Z"
		fill="#07162B" />
	<path
		d="M413.755 728.76C413.625 727.97 412.755 722.27 416.755 717.76C419.335 714.86 422.535 714.02 423.755 713.76C419.195 710.85 413.195 712.42 410.755 716.76C408.545 720.69 409.745 726 413.755 728.76Z"
		fill="#07162B" />
	<path
		d="M459.635 742.478C459.635 738.198 459.635 733.928 459.625 729.648L448.685 734.178C448.025 734.108 447.355 734.238 446.805 734.628C446.435 734.888 446.075 735.148 445.705 735.408L406.745 751.548V764.358C406.745 764.358 406.745 764.358 406.765 764.358C406.815 765.028 407.155 765.688 407.815 766.128C410.915 768.188 414.015 770.258 417.115 772.318C418.055 772.948 419.335 772.918 420.245 772.258L458.645 744.508C459.355 743.998 459.665 743.238 459.615 742.488L459.635 742.478Z"
		fill="#07162B" />
	<path
		d="M407.825 753.29C410.925 755.35 414.025 757.42 417.125 759.48C418.065 760.11 419.345 760.08 420.255 759.42L458.655 731.67C459.975 730.71 459.965 728.87 458.635 727.93L449.985 721.8C449.045 721.14 447.745 721.14 446.805 721.8C433.785 731.03 420.775 740.26 407.755 749.49C406.385 750.46 406.415 752.36 407.815 753.29H407.825Z"
		fill="#07162B" />
	<path
		d="M407.045 763.061L373.905 776.481V788.781L378.275 793.781L387.895 788.061C398.845 782.311 409.805 776.551 420.755 770.801C416.185 768.221 411.615 765.631 407.045 763.051V763.061Z"
		fill="#07162B" />
	<path
		d="M407.045 750.76C399.205 757.67 391.365 764.57 383.525 771.48L373.905 776.48L378.275 781.48L387.895 775.76C398.845 770.01 409.805 764.25 420.755 758.5C416.185 755.92 411.615 753.33 407.045 750.75V750.76Z"
		fill="#07162B" />
	<path
		d="M375.915 785.469C373.835 790.359 370.355 797.389 364.635 804.829C359.005 812.159 352.145 818.659 330.575 833.109C313.835 844.319 300.825 851.889 299.955 852.389C276.025 866.249 265.275 870.609 249.405 879.159C230.675 889.249 219.275 897.389 194.865 914.559C162.255 937.509 125.755 962.989 82.2554 993.359"
		stroke="#07162B"
		stroke-width="3"
		stroke-linecap="round"
		stroke-linejoin="round" />
	<path
		d="M377.124 785.731C377.363 785.245 377.029 784.593 376.38 784.274C375.73 783.956 375.01 784.091 374.772 784.577C374.534 785.063 374.867 785.715 375.517 786.034C376.166 786.353 376.886 786.217 377.124 785.731Z"
		fill="#07162B" />
	<path
		d="M437.825 686.409L431.465 683.199L418.465 686.199L421.465 698.199C424.565 699.939 427.655 701.679 430.755 703.409C436.425 699.409 442.085 695.409 447.755 691.409C444.895 689.769 441.876 688.209 438.676 686.779C438.396 686.649 438.115 686.529 437.835 686.409H437.825Z"
		fill="#123A7C" />
	<path
		d="M430.115 682.632L423.755 679.422L410.755 682.422L413.755 694.422L421.775 698.462C421.645 697.672 420.775 691.972 424.775 687.462C427.355 684.562 430.555 683.722 431.775 683.462C431.245 683.122 430.685 682.852 430.115 682.622V682.632Z"
		fill="#174DB1" />
	<path
		d="M413.755 694.42C413.625 693.63 412.755 687.93 416.755 683.42C419.335 680.52 422.535 679.68 423.755 679.42C419.195 676.51 413.195 678.08 410.755 682.42C408.545 686.35 409.745 691.66 413.755 694.42Z"
		fill="#030A16" />
	<path
		d="M459.635 708.142C459.635 703.862 459.635 699.593 459.625 695.312L448.685 699.842C448.025 699.772 447.355 699.902 446.805 700.292C446.435 700.552 446.075 700.813 445.705 701.073L406.745 717.212V730.022C406.745 730.022 406.745 730.022 406.765 730.022C406.815 730.692 407.155 731.352 407.815 731.792C410.915 733.852 414.015 735.922 417.115 737.982C418.055 738.612 419.335 738.582 420.245 737.922L458.645 710.172C459.355 709.662 459.665 708.902 459.615 708.152L459.635 708.142Z"
		fill="#123A7C" />
	<path
		d="M407.825 718.95C410.925 721.01 414.025 723.08 417.125 725.14C418.065 725.77 419.345 725.74 420.255 725.08L458.655 697.33C459.975 696.37 459.965 694.53 458.635 693.59L449.985 687.46C449.045 686.8 447.745 686.8 446.805 687.46C433.785 696.69 420.775 705.92 407.755 715.15C406.385 716.12 406.415 718.02 407.815 718.95H407.825Z"
		fill="#174DB1" />
	<path
		d="M407.045 728.721L373.905 742.141V754.441L378.275 759.441L387.895 753.721C398.845 747.971 409.805 742.211 420.755 736.461C416.185 733.881 411.615 731.291 407.045 728.711V728.721Z"
		fill="#123A7C" />
	<path
		d="M407.045 716.42C399.205 723.33 391.365 730.23 383.525 737.14L373.905 742.14L378.275 747.14L387.895 741.42C398.845 735.67 409.805 729.91 420.755 724.16C416.185 721.58 411.615 718.99 407.045 716.41V716.42Z"
		fill="#174DB1" />
	<path
		d="M375.915 751.133C373.835 756.023 370.355 763.053 364.635 770.493C359.005 777.823 352.145 784.323 330.575 798.773C313.835 809.983 300.825 817.553 299.955 818.053C276.025 831.913 265.275 836.273 249.405 844.823C230.675 854.913 219.275 863.053 194.865 880.223C162.255 903.173 125.755 928.653 82.2554 959.023"
		stroke="#0F3060"
		stroke-width="3"
		stroke-linecap="round"
		stroke-linejoin="round" />
	<path
		d="M377.124 751.399C377.362 750.913 377.029 750.261 376.379 749.942C375.73 749.624 375.01 749.759 374.772 750.245C374.533 750.731 374.867 751.383 375.516 751.702C376.166 752.021 376.885 751.885 377.124 751.399Z"
		fill="#103160" />
</svg>
