<svg viewBox="0 0 2074 1117" fill="none" xmlns="http://www.w3.org/2000/svg">
<g clip-path="url(#clip0_203_2)">
<rect width="2074" height="1117" fill="#FC8FE4"/>
<path d="M727.417 1049.18C754.857 1181.6 788.037 1289.58 815.417 1368.18C857.677 1489.5 896.288 1570.06 945.348 1645.15C986.668 1708.39 1026.35 1753.95 1084.1 1788.86C1093.43 1794.5 1127.45 1814.51 1177.61 1829.32C1234.33 1846.08 1392.07 1879.94 1532.41 1790.17C1568.44 1767.12 1624.97 1730.96 1653.65 1662.51C1692.05 1570.88 1639.26 1519.96 1616.19 1341.97C1603.69 1245.52 1587.72 1109.19 1654.28 978.654C1671.28 945.314 1701.8 887.314 1767.41 849.164C1830.23 812.644 1893.65 812.674 1933.41 813.164C2039.37 814.484 2048.75 854.764 2138.41 852.164C2160.03 851.534 2277.95 848.124 2336.32 761.844C2366.57 717.134 2367.35 670.084 2367.41 655.164C2367.73 566.724 2308.96 510.804 2300.4 502.924C2251.75 458.124 2169.16 426.224 2092.41 458.164C2034.81 482.134 2007.13 530.994 1998.41 548.164" stroke="#FBDDC3" stroke-width="20" stroke-linecap="round" stroke-linejoin="round"/>
<path d="M1972.8 586.72C1970.55 595.203 1975.61 603.902 1984.09 606.148C1992.58 608.394 2001.27 603.338 2003.52 594.854L2015.33 550.241C2017.58 541.758 2012.52 533.06 2004.04 530.814C1995.56 528.567 1986.86 533.624 1984.61 542.107L1972.8 586.72Z" fill="#AD639F"/>
<path d="M728.417 1037.18C714.527 1090.16 699.997 1168.21 704.417 1262.18C706.507 1306.7 725.657 1609.91 974.637 1808.15C1033.01 1854.62 1226.9 2010.11 1403.5 1943.02C1525.1 1896.83 1581.12 1774.47 1630.79 1665.98C1677.98 1562.91 1693.52 1474.65 1724.42 1299.18C1760.22 1095.89 1756.5 1006.19 1836.42 931.184C1853.81 914.854 1900.52 871.014 1969.41 861.084C2026.73 852.814 2046.69 870.544 2142.94 882.324C2195.91 888.804 2254.9 893.794 2297.52 861.674C2336.01 832.654 2349.85 780.194 2347.38 732.054C2342.41 635.424 2272.54 568.734 2229.3 529.514C2134.41 443.454 2026.22 416.674 1965.42 407.184" stroke="#FBDDC3" stroke-width="20" stroke-linecap="round" stroke-linejoin="round"/>
<path d="M990.417 138.185C982.267 80.2846 958.287 -22.1954 877.947 -112.465C765.437 -238.885 563.477 -322.185 377.917 -250.595C150.817 -162.975 107.107 95.0046 100.067 136.605C67.5574 328.465 133.657 574.035 291.967 655.185C432.367 727.145 575.057 633.765 677.967 732.185C732.107 783.965 743.757 858.715 746.417 906.185" stroke="#FBDDC3" stroke-width="20" stroke-linecap="round" stroke-linejoin="round"/>
<path d="M977.517 223.184H1001.32C1009.1 223.184 1015.42 216.871 1015.42 209.084V123.284C1015.42 115.496 1009.1 109.184 1001.32 109.184H977.517C969.73 109.184 963.417 115.496 963.417 123.284V209.084C963.417 216.871 969.73 223.184 977.517 223.184Z" fill="#AD639F"/>
<path d="M714.283 1058.26L747.631 1061.22C752.725 1061.68 757.222 1057.91 757.675 1052.82L771.177 900.938C771.629 895.844 767.867 891.348 762.773 890.895L729.424 887.93C724.33 887.477 719.834 891.24 719.381 896.334L705.879 1048.21C705.426 1053.31 709.189 1057.81 714.283 1058.26Z" fill="#AD639F"/>
<path d="M2005.94 595.374C1994.03 593.204 1982.12 591.044 1970.21 588.874C1968.04 588.484 1965.91 589.765 1965.24 591.865C1931.99 695.465 1908.65 775.134 1898.42 814.184C1896.15 822.834 1891.79 840.154 1894.42 862.184C1897.9 891.334 1911.62 911.744 1917.42 920.184C1929.74 938.094 1940.04 953.064 1958.42 958.184C1984.04 965.324 2011.09 949.354 2025.42 934.184C2062.46 894.974 2057.96 815.034 2022.42 798.184C1999.54 787.334 1969.3 805.264 1957.42 813.184C1956.42 806.514 1955.42 799.854 1954.42 793.184C1972.67 728.974 1990.92 664.774 2009.17 600.564C2009.84 598.214 2008.34 595.805 2005.93 595.365L2005.94 595.374Z" fill="#FCBFBC"/>
<path d="M1999.92 909.055C2011.11 912.085 2022.65 905.475 2025.68 894.285L2031.7 872.085C2034.73 860.895 2028.12 849.355 2016.93 846.325C2005.74 843.295 1994.2 849.905 1991.17 861.095L1985.15 883.295C1982.12 894.485 1988.73 906.025 1999.92 909.055Z" fill="#AD639F"/>
<path d="M1976.42 820.184C1976.66 820.304 1954.31 849.934 1949.42 893.184C1946.49 919.114 1950.79 941.414 1955.42 957.184C1953.75 956.514 1952.09 955.854 1950.42 955.184C1947.06 940.624 1944 919.264 1947.42 894.184C1953.46 849.834 1976.18 820.064 1976.42 820.184Z" fill="#AD639F"/>
<path d="M1960.42 811.184C1959.42 811.824 1958.42 812.494 1957.42 813.184C1951.8 817.044 1946.82 821.114 1942.42 825.184C1948.08 820.374 1955.05 815.154 1963.42 810.184C1974.85 803.404 1985.59 799.044 1994.42 796.184C1990.29 796.984 1985.53 798.224 1980.42 800.184C1971.91 803.444 1965.24 807.604 1960.42 811.184Z" fill="#AD639F"/>
<path d="M1945.89 387.226C1937.27 385.625 1928.97 391.322 1927.37 399.951C1925.77 408.579 1931.47 416.872 1940.1 418.473L1985.47 426.891C1994.1 428.492 2002.39 422.794 2003.99 414.166C2005.6 405.537 1999.9 397.245 1991.27 395.644L1945.89 387.226Z" fill="#AD639F"/>
<path d="M1950.23 384.694C1950.89 381.074 1948.55 377.594 1944.95 376.854C1841.6 355.614 1762.13 340.254 1717.06 330.714C1708.27 328.854 1682.97 323.434 1652.43 330.194C1638.44 333.284 1619.37 337.764 1603.43 354.194C1584.31 373.894 1581.77 398.334 1581 407.034C1580.38 414.024 1575.85 465.294 1615.43 491.194C1644.81 510.414 1682.9 505.474 1708.43 487.194C1739.05 465.264 1752 423.834 1739.43 385.194C1805.06 398.774 1870.68 412.354 1936.31 425.924C1939.67 426.624 1942.94 424.414 1943.56 421.044C1945.79 408.934 1948.01 396.814 1950.24 384.704L1950.23 384.694Z" fill="#FCBFBC"/>
<path d="M1718.42 359.184C1723.62 363.854 1731.67 372.324 1737.42 385.184C1745.53 403.334 1744.39 419.814 1743.42 427.184C1744.76 421.314 1747.89 404.074 1739.42 385.184C1733.13 371.154 1723.44 362.904 1718.42 359.184Z" fill="#AD639F"/>
<path d="M1696.42 342.187C1691.8 338.587 1677.9 328.737 1658.42 329.187C1648.95 329.407 1641.35 331.997 1636.42 334.187C1642.29 332.307 1652.61 329.827 1665.42 331.187C1680.3 332.757 1691.05 338.707 1696.42 342.187Z" fill="#AD639F"/>
<path d="M1654.55 413.164C1652.47 419.165 1655.65 425.716 1661.65 427.798C1667.65 429.879 1674.2 426.702 1676.28 420.701L1683.49 399.916C1685.57 393.916 1682.4 387.364 1676.4 385.283C1670.4 383.201 1663.85 386.378 1661.76 392.379L1654.55 413.164Z" fill="#AD639F"/>
<path d="M1486.84 208.184H933.997C894.465 208.184 862.417 240.231 862.417 279.764V1240.6C862.417 1280.14 894.465 1312.18 933.997 1312.18H1486.84C1526.37 1312.18 1558.42 1280.14 1558.42 1240.6V279.764C1558.42 240.231 1526.37 208.184 1486.84 208.184Z" fill="#E489F3"/>
<path d="M1252.42 918.184C1252.42 918.184 1246.82 930.724 1239.42 938.184C1231.36 946.314 1225.24 944.274 1218.42 949.184C1199.11 963.074 1209.24 1007.26 1210.42 1012.18C1213.32 1024.28 1220.87 1055.77 1243.42 1066.18C1280.24 1083.17 1349 1040.22 1362.42 982.184C1375.53 925.504 1334.04 862.354 1306.42 863.184C1281.4 863.934 1252.87 917.634 1252.42 918.184Z" fill="#AD6DBC"/>
<path d="M862.417 1245.18C875.147 1238.77 894.207 1226.73 907.417 1205.18C916.187 1190.87 920.667 1175.16 922.417 1138.18C925.867 1065.4 913.207 1027.51 927.417 980.184C930.207 970.904 935.447 956.504 948.417 945.184C963.217 932.264 980.537 929.954 985.417 929.184C1026.27 922.774 1214.69 864.654 1290.42 750.184C1301.59 733.294 1328.3 692.924 1329.42 638.184C1331.74 524.214 1220.56 472.774 1145.42 285.184C1132.49 252.894 1124.25 225.624 1119.42 208.184H930.417C924.387 208.524 903.477 210.464 885.417 227.184C864.307 246.724 862.647 272.064 862.417 277.184V1245.18Z" fill="#C87CD8"/>
<path d="M1484.51 284.574C1492.18 505.304 1496.2 667.204 1494.51 684.724C1493.1 699.314 1486.1 706.974 1486.1 706.974C1480.9 712.664 1473.72 716.194 1465.79 716.194C1296.36 713.274 1126.94 710.354 957.507 707.434C1133.18 566.484 1308.84 425.534 1484.51 284.584V284.574Z" fill="#7253C9"/>
<path d="M936.327 284.574C928.657 505.304 924.637 667.204 926.327 684.724C927.737 699.314 934.737 706.974 934.737 706.974C939.937 712.664 947.117 716.194 955.047 716.194C1124.48 713.274 1293.9 710.354 1463.33 707.434C1287.66 566.484 1112 425.534 936.327 284.584V284.574Z" fill="#7253C9"/>
<path d="M962.978 707.422L1457.86 707.422C1474.46 707.422 1487.92 693.964 1487.92 677.362V287.242C1487.92 270.64 1474.46 257.182 1457.86 257.182L962.978 257.182C946.376 257.182 932.917 270.64 932.917 287.242V677.362C932.917 693.964 946.376 707.422 962.978 707.422Z" fill="#885CE5"/>
<path d="M1210.42 781.977C1098.31 781.977 1007.42 872.867 1007.42 984.977C1007.42 1097.09 1098.31 1187.98 1210.42 1187.98C1322.53 1187.98 1413.42 1097.09 1413.42 984.977C1413.42 872.867 1322.53 781.977 1210.42 781.977ZM1210.42 1051.98C1173.42 1051.98 1143.42 1021.98 1143.42 984.977C1143.42 947.977 1173.42 917.977 1210.42 917.977C1247.42 917.977 1277.42 947.977 1277.42 984.977C1277.42 1021.98 1247.42 1051.98 1210.42 1051.98Z" fill="#7253C9"/>
<path d="M1059.15 984.85L1074 970V999.7L1059.15 984.85Z" fill="#FBDDC3"/>
<path d="M1076.15 984.85L1091 970V999.7L1076.15 984.85Z" fill="#FBDDC3"/>
<path d="M1057 973.352H1052V996.352H1057V973.352Z" fill="#FBDDC3"/>
<path d="M1357.85 984.85L1343 970V999.7L1357.85 984.85Z" fill="#FBDDC3"/>
<path d="M1340.85 984.85L1326 970V999.7L1340.85 984.85Z" fill="#FBDDC3"/>
<path d="M1359.99 996.359H1364.99V973.359H1359.99V996.359Z" fill="#FBDDC3"/>
<path d="M1172.77 857V839.104H1178.18L1181.42 851.312L1184.64 839.104H1190.06V857H1186.7V842.913L1183.15 857H1179.67L1176.13 842.913V857H1172.77ZM1193.64 857V839.104H1206.91V842.132H1197.26V846.099H1206.24V849.114H1197.26V853.985H1207.25V857H1193.64ZM1210.36 857V839.104H1213.87L1221.2 851.055V839.104H1224.55V857H1220.93L1213.71 845.33V857H1210.36ZM1228.36 839.104H1231.97V848.797C1231.97 850.335 1232.02 851.332 1232.11 851.788C1232.26 852.52 1232.63 853.11 1233.21 853.558C1233.79 853.997 1234.59 854.217 1235.6 854.217C1236.62 854.217 1237.4 854.009 1237.92 853.594C1238.44 853.171 1238.75 852.654 1238.86 852.044C1238.96 851.434 1239.02 850.42 1239.02 849.004V839.104H1242.63V848.504C1242.63 850.652 1242.53 852.17 1242.34 853.057C1242.14 853.944 1241.78 854.693 1241.25 855.303C1240.73 855.914 1240.03 856.402 1239.15 856.768C1238.27 857.126 1237.13 857.305 1235.71 857.305C1234 857.305 1232.7 857.11 1231.82 856.719C1230.94 856.32 1230.24 855.808 1229.73 855.181C1229.22 854.546 1228.88 853.883 1228.71 853.191C1228.48 852.166 1228.36 850.652 1228.36 848.65V839.104Z" fill="#FBDDC3"/>
</g>
<defs>
<clipPath id="clip0_203_2">
<rect width="2074" height="1117" fill="white"/>
</clipPath>
</defs>
</svg>
