<svg width="1728" height="1117" viewBox="0 0 1728 1117" fill="none" xmlns="http://www.w3.org/2000/svg">
<g clip-path="url(#clip0_205_2)">
<rect width="1728" height="1117" fill="#7D55C7"/>
<path d="M1081.95 851.921C1047.79 866.321 1013.63 880.721 979.469 895.121C973.219 897.751 972.119 906.141 977.469 910.311C1039.4 958.441 1101.33 1006.58 1163.26 1054.71C1165.87 1056.74 1169.39 1057.15 1172.4 1055.77C1209.1 1038.98 1245.81 1022.2 1282.51 1005.41C1288.73 1002.57 1289.53 994.06 1283.95 990.1C1219.48 944.36 1155.01 898.611 1090.53 852.871C1088.02 851.091 1084.78 850.741 1081.95 851.931V851.921Z" fill="#2C2C6D"/>
<path d="M1667.49 828.21L1667.48 828.02C1667.47 827.8 1667.46 827.59 1667.44 827.37C1667.46 810.91 1667.48 794.45 1667.5 777.99C1657.25 784.04 1647 790.1 1636.75 796.15C1571.77 805.26 1243.56 853.5 1207.22 944.02C1201.07 959.34 1182.15 1006.47 1199.83 1022.39C1205.3 1027.32 1212.87 1027.98 1218.61 1027.71L1657.87 843.84C1664.4 841.11 1667.74 834.67 1667.5 828.2L1667.49 828.21Z" fill="#E271BF"/>
<path d="M1290.58 955.931V988.801L1365.91 957.091V923.641L1290.58 955.931Z" fill="#A3528A"/>
<path d="M1410.7 905.901V938.771L1505.52 898.921V865.471L1410.7 905.901Z" fill="#A3528A"/>
<path d="M1554.39 845.69C1554.09 857.13 1553.8 868.56 1553.5 880C1572.7 871.86 1591.91 863.72 1611.11 855.58V821.26L1554.39 845.69V845.69Z" fill="#A3528A"/>
<path d="M1376.5 923.001C1376.35 932.171 1376.21 941.341 1376.06 950.511L1400.61 940.171V912.131C1392.57 915.751 1384.54 919.381 1376.5 923.001Z" fill="#A3528A"/>
<path d="M1516.22 864.97V892.23L1542.75 880.99L1543.55 853.59L1516.22 864.97Z" fill="#A3528A"/>
<path d="M1353.55 752.34C1353.55 747.75 1354.17 743.31 1355.31 739.07C1317.04 752.71 1278.77 766.35 1240.5 779.99C1222.85 787.93 1210.26 801.11 1211.5 811.99C1212.53 821.02 1223.33 830.55 1240.19 834.4C1239.07 830.19 1238.46 825.78 1238.46 821.22C1238.46 793.1 1261.25 770.31 1289.37 770.31C1313.15 770.31 1333.12 786.62 1338.72 808.66C1351.06 803.9 1363.4 799.13 1375.75 794.37C1362.36 785.2 1353.56 769.8 1353.56 752.34H1353.55Z" fill="#2C2C6D"/>
<path d="M1498.5 728C1496.43 716.32 1478.13 705.65 1451.82 707.04C1459.04 715.83 1463.38 727.08 1463.38 739.34C1463.38 747.78 1461.31 755.73 1457.68 762.74C1466.95 759.16 1476.23 755.58 1485.5 752C1489.11 748.87 1500.34 738.43 1498.5 728V728Z" fill="#2C2C6D"/>
<path d="M1413.24 789.999C1385.12 789.999 1362.33 767.209 1362.33 739.089C1362.33 731.929 1363.81 725.129 1366.48 718.949C1358.31 727.979 1353.33 739.949 1353.33 753.089C1353.33 781.209 1376.12 803.999 1404.24 803.999C1425.2 803.999 1443.2 791.329 1451 773.229C1441.68 783.529 1428.22 789.999 1413.24 789.999Z" fill="#844577"/>
<path d="M1412.24 790.99C1440.36 790.99 1463.15 768.197 1463.15 740.08C1463.15 711.963 1440.36 689.17 1412.24 689.17C1384.12 689.17 1361.33 711.963 1361.33 740.08C1361.33 768.197 1384.12 790.99 1412.24 790.99Z" fill="#A3528A"/>
<path d="M1289.14 871.881C1317.26 871.881 1340.05 849.087 1340.05 820.971C1340.05 792.854 1317.26 770.061 1289.14 770.061C1261.02 770.061 1238.23 792.854 1238.23 820.971C1238.23 849.087 1261.02 871.881 1289.14 871.881Z" fill="#A3528A"/>
<path d="M1670.53 23.9609L1660.5 143.151L1759.5 100.401L1670.53 23.9609Z" fill="#F277C7"/>
<path d="M522.005 425.34H891.665V795H522.005V425.34Z" fill="#F3EA5D"/>
<path d="M787.525 378H806.005V749.92H787.525V378Z" fill="#F277C7"/>
<path d="M821.424 378H840.694V749.92H821.424V378Z" fill="#F277C7"/>
<path d="M856.105 378H875.375V749.92H856.105V378Z" fill="#F277C7"/>
<path d="M752.844 378H772.114V749.92H752.844V378Z" fill="#F277C7"/>
<path d="M890.785 378H910.055V749.92H890.785V378Z" fill="#F277C7"/>
<path d="M683.485 378H702.755V749.92H683.485V378Z" fill="#F277C7"/>
<path d="M576.094 378H599.064V749.92H576.094V378Z" fill="#F277C7"/>
<path d="M925.475 378H948.015V749.92H925.475V378Z" fill="#F277C7"/>
<path d="M649.164 378H668.064V749.92H649.164V378Z" fill="#F277C7"/>
<path d="M614.474 378H633.744V749.92H614.474V378Z" fill="#F277C7"/>
<path d="M718.165 378H737.435V749.92H718.165V378Z" fill="#F277C7"/>
<path d="M1342.5 414C1374.53 414 1400.5 439.97 1400.5 472C1400.5 504.03 1374.53 530 1342.5 530C1310.47 530 1284.5 504.03 1284.5 472C1284.5 439.97 1310.47 414 1342.5 414ZM1342.5 520C1369.01 520 1390.5 498.51 1390.5 472C1390.5 445.49 1369.01 424 1342.5 424C1315.99 424 1294.5 445.49 1294.5 472C1294.5 498.51 1315.99 520 1342.5 520Z" fill="#05C2DD"/>
<path d="M788.09 128C835.586 128 874.09 89.4965 874.09 42C874.09 -5.49649 835.586 -44 788.09 -44C740.593 -44 702.09 -5.49649 702.09 42C702.09 89.4965 740.593 128 788.09 128Z" fill="#05C2DD"/>
<path d="M827.59 -78.8691C829.91 -78.3291 832.19 -77.7091 834.43 -76.9891V86.7609C832.19 87.4809 829.91 88.1009 827.59 88.6409V-78.8691Z" fill="#F277C7"/>
<path d="M842.979 -73.7207C845.319 -72.6807 847.6 -71.5507 849.82 -70.3207V80.0793C847.6 81.3093 845.319 82.4493 842.979 83.4793V-73.7207Z" fill="#F277C7"/>
<path d="M812.56 -81C814.87 -80.88 817.14 -80.65 819.4 -80.35V90.12C817.14 90.42 814.87 90.65 812.56 90.77V-81Z" fill="#F277C7"/>
<path d="M858.37 -64.8691C860.74 -63.1591 863.03 -61.3291 865.21 -59.3891V69.1609C863.03 71.1009 860.74 72.9309 858.37 74.6409V-64.8691Z" fill="#F277C7"/>
<path d="M880.59 51.1111C878.51 54.3611 876.23 57.4611 873.75 60.3911V-50.6289C876.23 -47.6989 878.51 -44.5989 880.59 -41.3489V51.1111Z" fill="#F277C7"/>
<path d="M797.17 -80.3998C799.43 -80.6898 801.7 -80.8998 804.01 -81.0098V90.7802C801.7 90.6702 799.43 90.4502 797.17 90.1702V-80.3998Z" fill="#F277C7"/>
<path d="M781.78 -76.9991C784.02 -77.7191 786.3 -78.3391 788.62 -78.8691V88.6409C786.3 88.1009 784.02 87.4809 781.78 86.7709V-76.9991Z" fill="#F277C7"/>
<path d="M725.59 -19.4004V29.1696C723.33 21.4696 722.09 13.3196 722.09 4.88961C722.09 -3.54039 723.33 -11.6904 725.59 -19.3904V-19.4004Z" fill="#F277C7"/>
<path d="M890.59 -19.4004C892.85 -11.7004 894.09 -3.55039 894.09 4.87961C894.09 13.3096 892.85 21.4596 890.59 29.1596V-19.4004Z" fill="#F277C7"/>
<path d="M735.78 -41.6496C737.86 -44.8696 740.14 -47.9496 742.62 -50.8496V60.6204C740.14 57.7104 737.86 54.6404 735.78 51.4204V-41.6496Z" fill="#F277C7"/>
<path d="M766.39 -70.3305C768.61 -71.5605 770.89 -72.6905 773.23 -73.7305V83.4995C770.89 82.4595 768.61 81.3295 766.39 80.0995V-70.3305Z" fill="#F277C7"/>
<path d="M751.17 -59.5598C753.35 -61.4898 755.64 -63.3098 758.01 -65.0098V74.7702C755.64 73.0702 753.35 71.2502 751.17 69.3202V-59.5598Z" fill="#F277C7"/>
<path d="M1209.09 1134.02C1202.18 1129.6 1199.52 1120.95 1197.46 1113C1195.4 1105.05 1192.97 1096.4 1186.25 1091.68C1181.55 1088.38 1175.4 1087.63 1169.74 1088.63C1164.08 1089.63 1158.83 1092.2 1153.86 1095.09C1150.99 1096.76 1148.11 1098.57 1144.84 1099.16C1137.95 1100.4 1131.18 1095.77 1127.25 1089.97C1123.32 1084.17 1121.45 1077.27 1118.64 1070.86C1115.83 1064.45 1111.59 1058.09 1105.06 1055.57C1097.02 1052.47 1088.12 1056.01 1080.14 1059.24C1072.16 1062.47 1062.83 1065.4 1055.25 1061.3" stroke="#F3EA5D" stroke-width="10" stroke-miterlimit="10" stroke-linecap="round"/>
<path d="M1530.5 505.6H1724.65V311.45H1530.5V505.6Z" fill="#F3EA5D"/>
<path d="M1679.66 286.6H1669.96V481.93H1679.66V286.6Z" fill="#05C2DD"/>
<path d="M1697.88 286.6H1687.76V481.93H1697.88V286.6Z" fill="#05C2DD"/>
<path d="M1716.09 286.6H1705.97V481.93H1716.09V286.6Z" fill="#05C2DD"/>
<path d="M1661.86 286.6H1651.74V481.93H1661.86V286.6Z" fill="#05C2DD"/>
<path d="M1625.43 286.6H1615.31V481.93H1625.43V286.6Z" fill="#05C2DD"/>
<path d="M1570.97 286.6H1558.91V481.93H1570.97V286.6Z" fill="#05C2DD"/>
<path d="M1607.22 286.6H1597.29V481.93H1607.22V286.6Z" fill="#05C2DD"/>
<path d="M1589.19 286.6H1579.07V481.93H1589.19V286.6Z" fill="#05C2DD"/>
<path d="M1643.65 286.6H1633.53V481.93H1643.65V286.6Z" fill="#05C2DD"/>
<path d="M1773.09 708.39C1760.63 702.4 1744.53 705.11 1734.73 714.86C1732.32 717.26 1730.09 720.15 1726.84 721.16C1721.64 722.78 1716.1 718.62 1714.11 713.55C1712.13 708.48 1712.72 702.83 1713.15 697.4C1713.76 689.74 1713.95 681.84 1711.43 674.58C1708.91 667.32 1703.13 660.76 1695.59 659.28C1686.94 657.59 1678.44 662.75 1671.91 668.68C1665.53 674.48 1658.27 681.82 1649.85 679.97C1641.03 678.03 1637.57 667.08 1638.17 658.08C1638.77 649.08 1641.72 639.85 1639.08 631.22C1635.14 618.36 1617.46 612.13 1606.33 619.68C1599.04 624.63 1594.19 634.23 1585.41 634.97C1577.33 635.65 1570.76 627.77 1569.2 619.81C1567.64 611.85 1569.52 603.68 1569.94 595.58C1570.36 587.48 1568.79 578.41 1562.33 573.5" stroke="#4D4ABF" stroke-width="10" stroke-miterlimit="10" stroke-linecap="round"/>
<path d="M1149.51 23.6602L1214.42 217.09L1031.61 189.55L1149.51 23.6702V23.6602Z" fill="#F277C7"/>
<path d="M1166.76 16.5703L1231.67 210L1048.86 182.46L1166.76 16.5803V16.5703ZM1163.87 36.3603L1065.45 174.84L1218.06 197.83L1163.87 36.3503V36.3603Z" fill="#4D4ABF"/>
<path d="M1520.97 197.91C1511.32 201.39 1505.7 211.19 1500.99 220.3C1496.28 229.41 1490.93 239.28 1481.44 243.17C1474.8 245.89 1467.1 245.1 1460.48 242.32C1453.86 239.54 1448.17 234.95 1442.93 230.06C1439.9 227.23 1436.89 224.22 1433.07 222.6C1425.02 219.18 1415.49 222.95 1409.1 228.93C1402.71 234.9 1398.53 242.79 1393.33 249.83C1388.13 256.86 1381.21 263.44 1372.56 264.69C1361.91 266.24 1352.04 259.47 1343.21 253.32C1334.38 247.17 1323.83 241.03 1313.46 243.93" stroke="#4D4ABF" stroke-width="10" stroke-miterlimit="10" stroke-linecap="round"/>
<path d="M836.29 900.311L857.79 1155.88L645.5 1064.23L836.29 900.311Z" fill="#05C2DD"/>
<path d="M1662.98 904.621L1786 949.461L1698.02 1028.16L1662.98 904.621Z" fill="#F3EA5D"/>
<path d="M1590.83 1097.63C1577.9 1049.35 1542.54 1016.6 1508.55 1023.19C1474.37 1029.81 1453.77 1073.82 1460.11 1123.75L1451.91 1125.39C1444.27 1068.74 1467.5 1018.59 1506.2 1011.1C1544.7 1003.64 1584.75 1041.06 1599.01 1095.99L1590.82 1097.63H1590.83Z" fill="#05C2DD"/>
<path d="M1551.07 1105.94C1537.6 1059.05 1502.9 1027.55 1469.5 1034.02C1435.92 1040.52 1415.45 1083.12 1420.77 1131.98L1412.53 1133.63C1405.94 1078.05 1429.05 1029.32 1467.15 1021.94C1505.06 1014.6 1544.46 1050.76 1559.28 1104.3L1551.06 1105.94H1551.07Z" fill="#F277C7"/>
<path d="M1353.09 -101C1400.59 -101 1439.09 -62.5 1439.09 -15C1439.09 32.5 1400.59 71 1353.09 71C1305.59 71 1267.09 32.5 1267.09 -15C1267.09 -62.5 1305.59 -101 1353.09 -101ZM1353.09 61C1395.06 61 1429.09 26.97 1429.09 -15C1429.09 -56.97 1395.06 -91 1353.09 -91C1311.12 -91 1277.09 -56.97 1277.09 -15C1277.09 26.97 1311.12 61 1353.09 61Z" fill="#F3EA5D"/>
<path d="M1079.44 812.749L1054.26 781.039L1057.34 834.379L1057.48 834.239C1057.86 837.169 1059 840.069 1060.99 842.639C1107.32 902.509 1153.64 962.389 1199.97 1022.26C1204.54 1028.16 1212.25 1030.33 1218.86 1027.58C1218.74 1010.38 1218.62 993.189 1218.5 975.989L1079.44 812.739V812.749Z" fill="#F277C7"/>
<path d="M1660.72 765.051C1603.08 719.821 1545.44 674.581 1487.8 629.351C1483.47 625.951 1477.84 624.951 1472.8 626.681C1336.82 673.331 1200.84 719.981 1064.87 766.631C1054.43 770.211 1050.86 783.491 1057.9 792.591C1104.23 852.461 1150.55 912.341 1196.88 972.211C1201.45 978.111 1209.16 980.281 1215.77 977.531L1657.65 793.661C1669.08 788.901 1670.8 772.951 1660.73 765.051H1660.72ZM1315.5 806.001C1307.83 796.671 1300.17 787.331 1292.5 778.001L1393.5 741.001L1417.5 766.001C1383.5 779.331 1349.5 792.671 1315.5 806.001Z" fill="#4D4ABF"/>
<path d="M1487.5 650H1463.97L1095.5 777L1084.5 795L1178.5 908L1600.5 739L1487.5 650ZM1315.5 806L1292.5 778L1393.5 741L1417.5 766L1315.5 806Z" fill="#7D55C7"/>
<path d="M1184 763.5L1441 673.5" stroke="black" stroke-miterlimit="10"/>
<path d="M1190.89 777.57L1447.89 687.57" stroke="black" stroke-miterlimit="10"/>
<path d="M1256.45 826.721C1274.67 826.721 1289.45 817.954 1289.45 807.141C1289.45 796.327 1274.67 787.561 1256.45 787.561C1238.22 787.561 1223.45 796.327 1223.45 807.141C1223.45 817.954 1238.22 826.721 1256.45 826.721Z" fill="#542B49"/>
<path d="M1289.5 807.42C1289.5 796.61 1274.73 787.84 1256.5 787.84C1238.27 787.84 1223.5 796.6 1223.5 807.42C1223.5 810.79 1224.94 813.96 1227.47 816.73C1232.57 811.51 1242.09 807.99 1253 807.99C1266.29 807.99 1277.53 813.21 1281.22 820.38C1286.37 816.93 1289.5 812.39 1289.5 807.42V807.42Z" fill="#A3528A"/>
<path d="M1455.54 751.881C1473.76 751.881 1488.54 743.114 1488.54 732.301C1488.54 721.487 1473.76 712.721 1455.54 712.721C1437.31 712.721 1422.54 721.487 1422.54 732.301C1422.54 743.114 1437.31 751.881 1455.54 751.881Z" fill="#542B49"/>
<path d="M1488.59 732.58C1488.59 721.77 1473.82 713 1455.59 713C1437.36 713 1422.59 721.76 1422.59 732.58C1422.59 735.95 1424.03 739.12 1426.56 741.89C1431.66 736.67 1441.18 733.15 1452.09 733.15C1465.38 733.15 1476.62 738.37 1480.31 745.54C1485.46 742.09 1488.59 737.55 1488.59 732.58V732.58Z" fill="#A3528A"/>
<path d="M1254.5 894V898.99C1262.83 916.33 1271.17 933.66 1279.5 951V1002L1281.5 1001V950C1272.5 931.33 1263.5 912.67 1254.5 894Z" fill="#AD5997"/>
<path d="M1575.91 766.039C1577.47 766.609 1579.03 767.179 1580.59 767.749C1594.02 781.529 1607.44 795.299 1620.87 809.079C1620.75 825.719 1620.62 842.359 1620.5 858.999L1618.5 859.999V809.999C1604.3 795.349 1590.11 780.699 1575.91 766.039V766.039Z" fill="#AD5997"/>
</g>
<defs>
<clipPath id="clip0_205_2">
<rect width="1728" height="1117" fill="white"/>
</clipPath>
</defs>
</svg>
