<svg
	viewBox="0 0 3170 1117"
	fill="none"
	xmlns="http://www.w3.org/2000/svg"
	xmlns:xlink="http://www.w3.org/1999/xlink">
	<g clip-path="url(#clip0_100_2817)">
		<path d="M2514.84 275.75H2097.84V692.75H2514.84V275.75Z" fill="url(#pattern1990)" />
		<path
			d="M3073.77 777.383L2767.32 974.443L2767.1 1054.44C2768.26 1054.1 2769.89 1053.6 2771.79 1052.89C2779.16 1050.14 2784.1 1046.8 2784.92 1046.27C2878.53 985.393 2972.16 924.513 3065.77 863.643C3070.91 860.303 3074 854.573 3073.98 848.443C3073.91 824.753 3073.84 801.073 3073.77 777.383Z"
			fill="#C68D32" />
		<path
			d="M2767.52 974.743L2749.66 986.233L2470.02 800.043V873.003C2470.02 881.123 2474.09 888.713 2480.85 893.203C2557.69 944.243 2634.52 995.293 2711.36 1046.33C2719.88 1051.99 2743.2 1061.64 2767.12 1054.86C2769.26 1054.25 2770.94 1053.64 2771.84 1053.3C2770.4 1027.11 2768.96 1000.93 2767.52 974.743Z"
			fill="#E4A934" />
		<path
			d="M3092.16 396.253L2833.88 263.673C2812.01 252.443 2786.01 268.323 2786.01 292.903V580.743C2786.01 592.663 2792.47 603.653 2802.88 609.453L3061.15 753.323C3083.05 765.523 3110 749.683 3110 724.613V425.493C3110 413.173 3103.11 401.883 3092.15 396.263L3092.16 396.253ZM2989.01 417.513C2989.01 419.703 2986.65 421.073 2984.75 419.993L2905.45 374.903C2904.56 374.393 2904.01 373.453 2904.01 372.423V365.333C2904.01 363.143 2906.37 361.773 2908.27 362.853L2987.57 408.073C2988.46 408.583 2989.01 409.523 2989.01 410.553V417.523V417.513Z"
			fill="#E4A934" />
		<path
			d="M2482.66 824.842C2567.33 877.542 2652.01 930.232 2736.68 982.932C2745.37 988.342 2756.37 988.332 2765.06 982.932L3061.12 798.492C3078.48 787.672 3077.85 762.182 3059.96 752.252L2801.33 608.582C2793.05 603.982 2782.95 604.082 2774.77 608.862L2483.32 778.892C2465.86 789.082 2465.5 814.182 2482.66 824.862V824.842Z"
			fill="#FCB73D" />
		<path
			d="M2550.52 748.602L2777.2 616.862C2784.65 612.532 2793.83 612.452 2801.35 616.662L3048.63 754.972C3065.06 764.162 3065.32 787.712 3049.1 797.262L2819.49 932.472C2811.9 936.942 2802.5 936.972 2794.88 932.552C2713.43 885.292 2631.98 838.032 2550.53 790.782C2534.34 781.392 2534.33 758.012 2550.51 748.612L2550.52 748.602Z"
			fill="#030A16" />
		<path
			d="M2799.75 666.271C2700.48 666.271 2620 714.822 2620 774.702C2620 834.582 2700.48 883.132 2799.75 883.132C2899.02 883.132 2979.5 834.582 2979.5 774.702C2979.5 714.822 2899.02 666.271 2799.75 666.271ZM2799.75 788.781C2786.86 788.781 2776.42 782.481 2776.42 774.711C2776.42 766.941 2786.87 760.641 2799.75 760.641C2812.63 760.641 2823.08 766.941 2823.08 774.711C2823.08 782.481 2812.63 788.781 2799.75 788.781Z"
			fill="#59A1F7" />
		<path
			d="M2799.74 669.061C2703.02 669.061 2624.62 716.361 2624.62 774.701C2624.62 833.041 2703.02 880.341 2799.74 880.341C2896.46 880.341 2974.86 833.041 2974.86 774.701C2974.86 716.361 2896.46 669.061 2799.74 669.061ZM2799.74 788.771C2786.85 788.771 2776.41 782.471 2776.41 774.701C2776.41 766.931 2786.86 760.631 2799.74 760.631C2812.62 760.631 2823.08 766.931 2823.08 774.701C2823.08 782.471 2812.62 788.771 2799.74 788.771Z"
			fill="#174DB1" />
		<path
			d="M2799.74 733.092C2761.64 733.092 2730.75 751.722 2730.75 774.712C2730.75 797.702 2761.64 816.332 2799.74 816.332C2837.84 816.332 2868.73 797.702 2868.73 774.712C2868.73 751.722 2837.84 733.092 2799.74 733.092ZM2799.74 788.782C2786.85 788.782 2776.41 782.482 2776.41 774.712C2776.41 766.942 2786.86 760.642 2799.74 760.642C2812.62 760.642 2823.07 766.942 2823.07 774.712C2823.07 782.482 2812.62 788.782 2799.74 788.782Z"
			fill="#06162D" />
		<path
			d="M2799.74 748.641C2775.88 748.641 2756.54 760.311 2756.54 774.701C2756.54 789.091 2775.88 800.761 2799.74 800.761C2823.6 800.761 2842.94 789.091 2842.94 774.701C2842.94 760.311 2823.6 748.641 2799.74 748.641ZM2799.74 788.781C2786.85 788.781 2776.41 782.481 2776.41 774.711C2776.41 766.941 2786.86 760.641 2799.74 760.641C2812.62 760.641 2823.07 766.941 2823.07 774.711C2823.07 782.481 2812.62 788.781 2799.74 788.781Z"
			fill="#8AB7F9" />
		<path
			d="M2514.36 798.812C2512.57 793.942 2507.27 790.422 2501.01 790.422C2494.75 790.422 2489.44 793.952 2487.66 798.812H2487.01V802.302C2487.01 802.302 2487.01 802.382 2487.01 802.422C2487.01 802.482 2487.01 802.532 2487.01 802.592V802.822C2487.01 802.822 2487.01 802.822 2487.02 802.822C2487.02 803.002 2487.02 803.172 2487.04 803.352C2487.59 809.552 2493.63 814.432 2501 814.432C2508.73 814.432 2515 809.062 2515 802.432V798.822H2514.35L2514.36 798.812Z"
			fill="#7A2414" />
		<path
			d="M2501.01 811.422C2508.74 811.422 2515.01 806.049 2515.01 799.422C2515.01 792.794 2508.74 787.422 2501.01 787.422C2493.27 787.422 2487.01 792.794 2487.01 799.422C2487.01 806.049 2493.27 811.422 2501.01 811.422Z"
			fill="#B13A1A" />
		<path
			d="M2660.81 902.842C2659.78 900.022 2656.71 897.982 2653.08 897.982C2649.45 897.982 2646.38 900.022 2645.35 902.842H2644.98V904.862C2644.98 904.862 2644.98 904.902 2644.98 904.932C2644.98 904.962 2644.98 904.992 2644.98 905.032V905.162C2644.98 905.262 2644.98 905.362 2644.99 905.472C2645.31 909.062 2648.8 911.882 2653.07 911.882C2657.55 911.882 2661.17 908.772 2661.17 904.932V902.842H2660.8H2660.81Z"
			fill="#7A2414" />
		<path
			d="M2653.08 910.142C2657.55 910.142 2661.18 907.031 2661.18 903.192C2661.18 899.354 2657.55 896.242 2653.08 896.242C2648.6 896.242 2644.98 899.354 2644.98 903.192C2644.98 907.031 2648.6 910.142 2653.08 910.142Z"
			fill="#B13A1A" />
		<path
			d="M2691.64 897.163C2690.61 894.343 2687.54 892.303 2683.91 892.303C2680.28 892.303 2677.21 894.343 2676.18 897.163H2675.81V899.183C2675.81 899.183 2675.81 899.223 2675.81 899.253C2675.81 899.283 2675.81 899.313 2675.81 899.353V899.483C2675.81 899.583 2675.81 899.683 2675.82 899.793C2676.14 903.383 2679.63 906.203 2683.9 906.203C2688.38 906.203 2692 903.093 2692 899.253V897.163H2691.63H2691.64Z"
			fill="#7A2414" />
		<path
			d="M2683.91 904.462C2688.38 904.462 2692.01 901.351 2692.01 897.513C2692.01 893.674 2688.38 890.562 2683.91 890.562C2679.43 890.562 2675.81 893.674 2675.81 897.513C2675.81 901.351 2679.43 904.462 2683.91 904.462Z"
			fill="#B13A1A" />
		<path
			d="M2635.39 891.092C2635.39 891.092 2635.39 891.082 2635.39 891.072L2635.29 889.462L2633.71 888.902L2617.26 878.802C2616.34 878.232 2615.15 878.352 2614.35 879.082L2612.41 880.852C2612.26 880.982 2612.14 881.132 2612.03 881.292L2611.51 881.112L2611.63 882.952H2611.64C2611.73 883.652 2612.11 884.322 2612.78 884.732C2618.44 888.202 2624.1 891.682 2629.77 895.152C2630.69 895.722 2631.88 895.602 2632.68 894.872C2633.33 894.282 2633.97 893.692 2634.62 893.102C2635.17 892.602 2635.42 891.912 2635.4 891.242H2635.41L2635.4 891.082L2635.39 891.092Z"
			fill="#7A2414" />
		<path
			d="M2612.3 879.252L2614.24 877.482C2615.04 876.752 2616.23 876.642 2617.15 877.202L2634.14 887.622C2635.52 888.472 2635.7 890.402 2634.51 891.492C2633.86 892.082 2633.22 892.672 2632.57 893.262C2631.77 893.992 2630.58 894.102 2629.66 893.542C2624 890.072 2618.34 886.592 2612.67 883.122C2611.29 882.272 2611.11 880.342 2612.3 879.252Z"
			fill="#B13A1A" />
		<path
			d="M2655.85 876.792C2655.85 876.792 2655.85 876.782 2655.85 876.772L2655.75 875.162L2654.17 874.602L2637.72 864.502C2636.8 863.932 2635.61 864.052 2634.81 864.782L2632.87 866.552C2632.72 866.682 2632.6 866.832 2632.49 866.992L2631.97 866.812L2632.09 868.652H2632.1C2632.19 869.352 2632.57 870.022 2633.24 870.432C2638.9 873.902 2644.56 877.382 2650.23 880.852C2651.15 881.422 2652.34 881.302 2653.14 880.572C2653.79 879.982 2654.43 879.392 2655.08 878.802C2655.63 878.302 2655.88 877.612 2655.86 876.942H2655.87L2655.86 876.782L2655.85 876.792Z"
			fill="#7A2414" />
		<path
			d="M2632.76 864.952L2634.7 863.182C2635.5 862.452 2636.69 862.342 2637.61 862.902L2654.6 873.322C2655.98 874.172 2656.16 876.102 2654.97 877.192C2654.32 877.782 2653.68 878.372 2653.03 878.962C2652.23 879.692 2651.04 879.802 2650.12 879.242C2644.46 875.772 2638.8 872.292 2633.13 868.822C2631.75 867.972 2631.57 866.042 2632.76 864.952Z"
			fill="#B13A1A" />
		<path
			d="M2741.38 924.562V924.462C2741.38 924.462 2741.36 924.402 2741.36 924.382L2740.93 921.142L2738.19 921.432C2735.88 919.812 2732.98 918.162 2729.47 916.882C2725.6 915.482 2717.31 912.472 2708.47 915.882C2706.77 916.542 2698.57 919.702 2696.13 925.942L2694.99 926.062L2695.44 930.622H2695.51C2696.1 936.502 2701.57 942.502 2709.78 944.712C2710.21 944.832 2710.68 944.752 2711.06 944.512C2720.91 938.352 2730.77 932.192 2740.62 926.032C2741.16 925.702 2741.41 925.122 2741.37 924.552L2741.38 924.562Z"
			fill="#7A2414" />
		<path
			d="M2729.01 913.421C2725.14 912.021 2716.85 909.011 2708.01 912.421C2706.06 913.171 2695.57 917.221 2695.01 925.421C2694.57 931.821 2700.31 938.821 2709.33 941.251C2709.76 941.371 2710.23 941.291 2710.61 941.051C2720.46 934.891 2730.32 928.731 2740.17 922.571C2741.1 921.991 2741.2 920.661 2740.36 919.961C2737.78 917.811 2734.01 915.231 2729.01 913.421Z"
			fill="#B13A1A" />
		<path
			d="M2767.57 946.852V946.572C2767.55 946.442 2767.54 946.312 2767.54 946.182L2767.39 943.292L2766.96 943.342C2765.29 938.332 2760.27 933.652 2753.23 931.762C2752.8 931.642 2752.33 931.722 2751.95 931.962C2743.53 937.222 2735.1 942.492 2726.68 947.752L2721.44 948.322L2721.62 951.892H2721.63C2721.65 952.312 2721.83 952.732 2722.19 953.042C2724.77 955.192 2728.54 957.772 2733.54 959.582C2737.41 960.982 2745.7 963.992 2754.54 960.582C2756.49 959.832 2766.98 955.782 2767.54 947.582C2767.56 947.332 2767.54 947.092 2767.54 946.842H2767.56L2767.57 946.852Z"
			fill="#7A2414" />
		<path
			d="M2733.36 956.202C2737.23 957.602 2745.52 960.612 2754.36 957.202C2756.31 956.452 2766.8 952.402 2767.36 944.202C2767.8 937.802 2762.06 930.802 2753.04 928.372C2752.61 928.252 2752.14 928.332 2751.76 928.572C2741.91 934.732 2732.05 940.892 2722.2 947.052C2721.27 947.632 2721.17 948.962 2722.01 949.662C2724.59 951.812 2728.36 954.392 2733.36 956.202Z"
			fill="#B13A1A" />
		<path
			d="M2907.83 980.751L2901.47 977.541L2888.47 980.541L2891.47 992.541C2894.57 994.281 2897.66 996.021 2900.76 997.751C2906.43 993.751 2912.09 989.751 2917.76 985.751C2914.9 984.111 2911.88 982.551 2908.68 981.121C2908.4 980.991 2908.12 980.871 2907.84 980.751H2907.83Z"
			fill="#07162B" />
		<path
			d="M2900.12 976.972L2893.76 973.762L2880.76 976.762L2883.76 988.762L2891.78 992.802C2891.65 992.012 2890.78 986.312 2894.78 981.802C2897.36 978.902 2900.56 978.062 2901.78 977.802C2901.25 977.462 2900.69 977.192 2900.12 976.962V976.972Z"
			fill="#07162B" />
		<path
			d="M2883.76 988.762C2883.63 987.972 2882.76 982.272 2886.76 977.762C2889.34 974.862 2892.54 974.022 2893.76 973.762C2889.2 970.852 2883.2 972.422 2880.76 976.762C2878.55 980.692 2879.75 986.002 2883.76 988.762Z"
			fill="#07162B" />
		<path
			d="M2929.64 1002.48C2929.64 998.202 2929.64 993.932 2929.63 989.652L2918.69 994.182C2918.03 994.112 2917.36 994.242 2916.81 994.632C2916.44 994.892 2916.08 995.152 2915.71 995.412L2876.75 1011.55V1024.36C2876.75 1024.36 2876.75 1024.36 2876.77 1024.36C2876.82 1025.03 2877.16 1025.69 2877.82 1026.13C2880.92 1028.19 2884.02 1030.26 2887.12 1032.32C2888.06 1032.95 2889.34 1032.92 2890.25 1032.26L2928.65 1004.51C2929.36 1004 2929.67 1003.24 2929.62 1002.49L2929.64 1002.48Z"
			fill="#07162B" />
		<path
			d="M2877.83 1013.29C2880.93 1015.35 2884.03 1017.42 2887.13 1019.48C2888.07 1020.11 2889.35 1020.08 2890.26 1019.42L2928.66 991.672C2929.98 990.712 2929.97 988.872 2928.64 987.932L2919.99 981.802C2919.05 981.142 2917.75 981.142 2916.81 981.802C2903.79 991.032 2890.78 1000.26 2877.76 1009.49C2876.39 1010.46 2876.42 1012.36 2877.82 1013.29H2877.83Z"
			fill="#07162B" />
		<path
			d="M2877.05 1023.06L2843.91 1036.48V1048.78L2848.28 1053.78L2857.9 1048.06C2868.85 1042.31 2879.81 1036.55 2890.76 1030.8C2886.19 1028.22 2881.62 1025.63 2877.05 1023.05V1023.06Z"
			fill="#07162B" />
		<path
			d="M2877.05 1010.76C2869.21 1017.67 2861.37 1024.57 2853.53 1031.48L2843.91 1036.48L2848.28 1041.48L2857.9 1035.76C2868.85 1030.01 2879.81 1024.25 2890.76 1018.5C2886.19 1015.92 2881.62 1013.33 2877.05 1010.75V1010.76Z"
			fill="#07162B" />
		<path
			d="M2845.92 1045.47C2843.84 1050.36 2840.36 1057.39 2834.64 1064.83C2829.01 1072.16 2822.15 1078.66 2800.58 1093.11C2783.84 1104.32 2770.83 1111.89 2769.96 1112.39C2746.03 1126.25 2735.28 1130.61 2719.41 1139.16C2700.68 1149.25 2689.28 1157.39 2664.87 1174.56C2632.26 1197.51 2595.76 1222.99 2552.26 1253.36"
			stroke="#07162B"
			stroke-width="3"
			stroke-linecap="round"
			stroke-linejoin="round" />
		<path
			d="M2847.12 1045.73C2847.36 1045.25 2847.03 1044.6 2846.38 1044.28C2845.73 1043.96 2845.01 1044.1 2844.77 1044.58C2844.53 1045.07 2844.87 1045.72 2845.52 1046.04C2846.17 1046.36 2846.89 1046.22 2847.12 1045.73Z"
			fill="#07162B" />
		<path
			d="M2907.83 946.411L2901.47 943.201L2888.47 946.201L2891.47 958.201C2894.57 959.941 2897.66 961.681 2900.76 963.411C2906.43 959.411 2912.09 955.411 2917.76 951.411C2914.9 949.771 2911.88 948.211 2908.68 946.781C2908.4 946.651 2908.12 946.531 2907.84 946.411H2907.83Z"
			fill="#123A7C" />
		<path
			d="M2900.12 942.632L2893.76 939.422L2880.76 942.422L2883.76 954.422L2891.78 958.462C2891.65 957.672 2890.78 951.972 2894.78 947.462C2897.36 944.562 2900.56 943.722 2901.78 943.462C2901.25 943.122 2900.69 942.852 2900.12 942.622V942.632Z"
			fill="#174DB1" />
		<path
			d="M2883.76 954.422C2883.63 953.632 2882.76 947.932 2886.76 943.422C2889.34 940.522 2892.54 939.682 2893.76 939.422C2889.2 936.512 2883.2 938.082 2880.76 942.422C2878.55 946.352 2879.75 951.662 2883.76 954.422Z"
			fill="#030A16" />
		<path
			d="M2929.64 968.142C2929.64 963.862 2929.64 959.593 2929.63 955.312L2918.69 959.842C2918.03 959.772 2917.36 959.902 2916.81 960.292C2916.44 960.552 2916.08 960.813 2915.71 961.073L2876.75 977.212V990.022C2876.75 990.022 2876.75 990.022 2876.77 990.022C2876.82 990.692 2877.16 991.352 2877.82 991.792C2880.92 993.852 2884.02 995.922 2887.12 997.982C2888.06 998.612 2889.34 998.582 2890.25 997.922L2928.65 970.172C2929.36 969.662 2929.67 968.902 2929.62 968.152L2929.64 968.142Z"
			fill="#123A7C" />
		<path
			d="M2877.83 978.952C2880.93 981.012 2884.03 983.082 2887.13 985.142C2888.07 985.772 2889.35 985.742 2890.26 985.082L2928.66 957.332C2929.98 956.372 2929.97 954.532 2928.64 953.592L2919.99 947.462C2919.05 946.802 2917.75 946.802 2916.81 947.462C2903.79 956.692 2890.78 965.922 2877.76 975.152C2876.39 976.122 2876.42 978.022 2877.82 978.952H2877.83Z"
			fill="#174DB1" />
		<path
			d="M2877.05 988.723L2843.91 1002.14V1014.44L2848.28 1019.44L2857.9 1013.72C2868.85 1007.97 2879.81 1002.21 2890.76 996.463C2886.19 993.883 2881.62 991.293 2877.05 988.713V988.723Z"
			fill="#123A7C" />
		<path
			d="M2877.05 976.422C2869.21 983.332 2861.37 990.232 2853.53 997.142L2843.91 1002.14L2848.28 1007.14L2857.9 1001.42C2868.85 995.672 2879.81 989.912 2890.76 984.162C2886.19 981.582 2881.62 978.992 2877.05 976.412V976.422Z"
			fill="#174DB1" />
		<path
			d="M2845.92 1011.13C2843.84 1016.02 2840.36 1023.05 2834.64 1030.49C2829.01 1037.82 2822.15 1044.32 2800.58 1058.77C2783.84 1069.98 2770.83 1077.55 2769.96 1078.05C2746.03 1091.91 2735.28 1096.27 2719.41 1104.82C2700.68 1114.91 2689.28 1123.05 2664.87 1140.22C2632.26 1163.17 2595.76 1188.65 2552.26 1219.02"
			stroke="#0F3060"
			stroke-width="3"
			stroke-linecap="round"
			stroke-linejoin="round" />
		<path
			d="M2847.12 1011.4C2847.36 1010.92 2847.03 1010.26 2846.38 1009.94C2845.73 1009.63 2845.01 1009.76 2844.77 1010.25C2844.53 1010.73 2844.87 1011.39 2845.52 1011.7C2846.17 1012.02 2846.89 1011.89 2847.12 1011.4Z"
			fill="#103160" />
	</g>
</svg>
